<?xml version="1.0" standalone="no"?>
<!DOCTYPE svg PUBLIC "-//W3C//DTD SVG 20010904//EN"
 "http://www.w3.org/TR/2001/REC-SVG-20010904/DTD/svg10.dtd">
<svg version="1.0" xmlns="http://www.w3.org/2000/svg"
 width="700.000000pt" height="700.000000pt" viewBox="0 0 700.000000 700.000000"
 preserveAspectRatio="xMidYMid meet">
<metadata>
Created by potrace 1.14, written by Peter Selinger 2001-2017
</metadata>
<g transform="translate(0.000000,700.000000) scale(0.100000,-0.100000)"
fill="#000000" stroke="none">
<path d="M1574 5199 c-327 -29 -671 -166 -924 -367 -86 -69 -223 -208 -292
-297 -171 -220 -284 -472 -334 -750 -25 -139 -25 -431 0 -570 84 -465 351
-869 746 -1133 235 -156 523 -255 820 -282 156 -13 3664 -13 3820 0 430 38
805 214 1101 517 652 665 652 1700 0 2366 -296 303 -670 479 -1101 517 -138
12 -3699 11 -3836 -1z m3812 -129 c507 -39 956 -304 1228 -723 258 -396 322
-888 175 -1332 -177 -532 -626 -934 -1180 -1054 -52 -11 -152 -25 -223 -31
-165 -13 -3600 -13 -3772 0 -506 39 -958 305 -1227 720 -339 525 -339 1175 0
1700 265 408 723 681 1208 719 145 12 3645 12 3791 1z"/>
<path d="M1453 4261 c-244 -37 -446 -70 -449 -74 -4 -4 -1 -47 6 -97 15 -106
-4 -100 201 -69 79 12 144 18 148 13 4 -5 38 -209 75 -454 38 -245 69 -446 70
-447 1 -1 53 6 116 15 84 13 116 22 117 32 2 8 -28 213 -66 455 -38 242 -68
441 -67 442 1 1 76 14 165 27 90 14 166 27 168 30 3 3 0 38 -6 78 -16 102 -20
118 -29 117 -4 -1 -206 -31 -449 -68z"/>
<path d="M4320 3620 l0 -570 110 0 110 0 0 47 0 47 38 -36 c53 -51 97 -70 173
-76 217 -15 371 146 386 403 10 164 -29 288 -116 376 -64 64 -127 90 -219 92
-85 2 -146 -19 -202 -70 l-50 -44 -2 198 -3 198 -112 3 -113 3 0 -571z m501
67 c75 -49 110 -201 74 -322 -23 -81 -81 -140 -148 -150 -38 -6 -55 -3 -94 16
-86 43 -118 120 -110 260 5 101 31 159 86 196 48 32 144 32 192 0z"/>
<path d="M2065 3918 c-2 -7 -29 -132 -60 -277 -61 -295 -67 -368 -34 -441 74
-165 303 -223 447 -114 l35 27 -7 -39 c-22 -123 -64 -193 -144 -240 -87 -53
-180 -55 -273 -8 -41 20 -109 84 -109 102 0 4 -4 13 -9 20 -6 11 -26 6 -97
-23 -49 -20 -93 -40 -98 -45 -15 -15 46 -110 106 -165 264 -245 684 -142 804
198 29 83 186 859 175 866 -15 10 -200 45 -206 40 -2 -3 -27 -115 -56 -249
-28 -135 -60 -262 -71 -283 -47 -93 -184 -113 -260 -37 -40 40 -37 72 27 375
30 142 54 260 52 261 -2 2 -206 44 -214 44 -2 0 -6 -6 -8 -12z"/>
<path d="M3335 3900 c-68 -14 -98 -30 -137 -72 l-38 -41 0 46 0 47 -110 0
-110 0 0 -415 0 -415 115 0 115 0 1 278 c0 187 4 288 12 311 18 51 55 74 120
73 123 -1 127 -13 127 -377 l0 -285 115 0 115 0 0 273 c0 247 2 276 20 314 54
119 207 105 239 -21 7 -28 11 -146 11 -305 l0 -261 111 0 110 0 -3 328 -3 327
-30 54 c-53 97 -141 145 -262 144 -79 -1 -160 -37 -194 -88 l-24 -34 -44 45
c-24 26 -58 52 -75 59 -43 17 -133 25 -181 15z"/>
<path d="M5532 3899 c-167 -21 -287 -136 -323 -309 -16 -77 -6 -240 20 -315
56 -161 191 -245 392 -245 119 0 244 55 303 133 27 36 66 111 66 127 0 6 -42
10 -115 10 -114 0 -116 0 -127 -26 -24 -52 -133 -81 -205 -53 -58 22 -112 99
-113 162 l0 27 288 0 288 0 -7 88 c-17 213 -111 351 -264 390 -64 16 -135 20
-203 11z m164 -199 c34 -22 74 -90 74 -128 0 -22 -2 -22 -170 -22 l-170 0 6
28 c30 129 154 187 260 122z"/>
</g>
</svg>
