<svg width="118" height="40" viewBox="0 0 118 40" fill="none" xmlns="http://www.w3.org/2000/svg">
<path d="M7.57708 39.9979C7.27219 39.9979 6.97466 39.9938 6.67216 39.9867C6.04551 39.9782 5.42032 39.9212 4.80172 39.8162C4.22491 39.7124 3.66614 39.5193 3.14383 39.2432C2.62632 38.9695 2.1543 38.6106 1.74586 38.1802C1.33152 37.7549 0.986552 37.2616 0.724643 36.7199C0.459849 36.1746 0.276595 35.5902 0.181266 34.9869C0.0783187 34.3387 0.0226201 33.6833 0.0146502 33.0262C0.0083058 32.8057 0 32.0714 0 32.0714V7.91524C0 7.91524 0.00884618 7.19223 0.0147002 6.97982C0.0223314 6.32383 0.0777062 5.66941 0.180345 5.0222C0.27585 4.41729 0.459246 3.83117 0.724183 3.28415C0.985129 2.7428 1.32818 2.24915 1.74003 1.82232C2.15142 1.39143 2.62494 1.03064 3.14334 0.753121C3.66445 0.477981 4.22217 0.286241 4.79781 0.184325C5.41844 0.0782559 6.0458 0.0209099 6.67462 0.012768L7.57757 0H110.418L111.331 0.0132804C111.954 0.0210177 112.576 0.0778521 113.191 0.1833C113.772 0.286495 114.336 0.479573 114.863 0.756185C115.902 1.31547 116.747 2.20032 117.28 3.2867C117.54 3.82995 117.721 4.41128 117.815 5.01097C117.919 5.66349 117.977 6.32306 117.989 6.98442C117.992 7.28056 117.992 7.59866 117.992 7.91524C118 8.30737 118 8.68061 118 9.05692V30.942C118 31.3219 118 31.6926 117.992 32.0663C117.992 32.4064 117.992 32.7179 117.988 33.0385C117.977 33.688 117.919 34.3358 117.817 34.9767C117.724 35.5843 117.542 36.1733 117.277 36.723C117.013 37.2588 116.67 37.7478 116.26 38.172C115.852 38.6047 115.379 38.9657 114.86 39.2412C114.335 39.5194 113.772 39.7132 113.191 39.8162C112.572 39.9217 111.947 39.9788 111.32 39.9867C111.027 39.9938 110.72 39.9979 110.422 39.9979L109.338 40L7.57708 39.9979Z" fill="black"/>
<path d="M24.769 19.8757C24.7797 19.0593 25.0014 18.2589 25.4135 17.5488C25.8255 16.8387 26.4145 16.2421 27.1256 15.8145C26.6738 15.1835 26.0779 14.6641 25.385 14.2978C24.6922 13.9314 23.9216 13.7281 23.1344 13.704C21.4552 13.5316 19.8272 14.6869 18.9715 14.6869C18.0992 14.6869 16.7817 13.7212 15.363 13.7497C14.4453 13.7787 13.551 14.0397 12.7671 14.5073C11.9832 14.9749 11.3365 15.6332 10.8901 16.4179C8.95607 19.6931 10.3987 24.5065 12.2513 27.1539C13.1782 28.4502 14.2615 29.8983 15.6789 29.847C17.066 29.7907 17.584 28.9818 19.2583 28.9818C20.9171 28.9818 21.4031 29.8469 22.8493 29.8143C24.3377 29.7907 25.2754 28.5122 26.1698 27.2035C26.8358 26.2798 27.3483 25.259 27.6882 24.1787C26.8235 23.821 26.0856 23.2222 25.5665 22.457C25.0474 21.6918 24.77 20.7941 24.769 19.8757Z" fill="white"/>
<path d="M22.0376 11.9629C22.8491 11.01 23.2489 9.78524 23.1521 8.54866C21.9123 8.67603 20.767 9.25563 19.9445 10.172C19.5424 10.6196 19.2344 11.1404 19.0381 11.7046C18.8419 12.2687 18.7612 12.8652 18.8008 13.4598C19.4209 13.4661 20.0344 13.3346 20.5951 13.0753C21.1558 12.816 21.649 12.4357 22.0376 11.9629Z" fill="white"/>
<path d="M42.3022 26.5651H37.5688L36.4321 29.8482H34.4272L38.9106 17.7018H40.9936L45.477 29.8482H43.438L42.3022 26.5651ZM38.0591 25.0502H41.8111L39.9615 19.7221H39.9097L38.0591 25.0502Z" fill="white"/>
<path d="M55.1597 25.4208C55.1597 28.1727 53.6538 29.9408 51.3814 29.9408C50.8057 29.9703 50.2332 29.8406 49.7294 29.5665C49.2256 29.2925 48.8109 28.8853 48.5327 28.3915H48.4897V32.7777H46.6313V20.9925H48.4302V22.4654H48.4644C48.7553 21.9739 49.1771 21.5688 49.6847 21.2931C50.1923 21.0174 50.7669 20.8815 51.3472 20.8998C53.645 20.8998 55.1597 22.6765 55.1597 25.4208ZM53.2495 25.4208C53.2495 23.6279 52.3023 22.4492 50.857 22.4492C49.437 22.4492 48.482 23.6527 48.482 25.4208C48.482 27.2051 49.437 28.4001 50.857 28.4001C52.3023 28.4001 53.2495 27.2299 53.2495 25.4208Z" fill="white"/>
<path d="M65.1245 25.4208C65.1245 28.1727 63.6187 29.9408 61.3462 29.9408C60.7706 29.9702 60.1981 29.8405 59.6943 29.5665C59.1905 29.2925 58.7758 28.8853 58.4976 28.3914H58.4546V32.7777H56.5962V20.9925H58.395V22.4654H58.4292C58.7201 21.9739 59.1419 21.5688 59.6495 21.2931C60.1571 21.0174 60.7317 20.8815 61.312 20.8998C63.6099 20.8998 65.1245 22.6765 65.1245 25.4208ZM63.2144 25.4208C63.2144 23.6279 62.2671 22.4492 60.8218 22.4492C59.4019 22.4492 58.4468 23.6527 58.4468 25.4208C58.4468 27.2051 59.4019 28.4001 60.8218 28.4001C62.2671 28.4001 63.2144 27.2299 63.2144 25.4208H63.2144Z" fill="white"/>
<path d="M71.7105 26.4639C71.8482 27.6684 73.0445 28.4592 74.6792 28.4592C76.2456 28.4592 77.3726 27.6683 77.3726 26.5823C77.3726 25.6395 76.6929 25.075 75.0835 24.6881L73.4742 24.3089C71.1939 23.7701 70.1353 22.7271 70.1353 21.0345C70.1353 18.9387 72.0025 17.4993 74.6538 17.4993C77.2778 17.4993 79.0767 18.9387 79.1372 21.0345H77.2612C77.1489 19.8223 76.1245 19.0906 74.6274 19.0906C73.1304 19.0906 72.106 19.8309 72.106 20.9084C72.106 21.7671 72.7603 22.2724 74.3608 22.6592L75.729 22.9878C78.2769 23.5772 79.3355 24.5782 79.3355 26.3549C79.3355 28.6273 77.4849 30.0506 74.5415 30.0506C71.7876 30.0506 69.9282 28.6607 69.8081 26.4638L71.7105 26.4639Z" fill="white"/>
<path d="M83.3462 18.8968V20.9925H85.0679V22.432H83.3462V27.314C83.3462 28.0724 83.6909 28.4258 84.4477 28.4258C84.6521 28.4224 84.8562 28.4083 85.0591 28.3838V29.8147C84.7188 29.8769 84.3729 29.905 84.0268 29.8987C82.1938 29.8987 81.479 29.2253 81.479 27.5079V22.432H80.1626V20.9925H81.479V18.8968H83.3462Z" fill="white"/>
<path d="M86.0649 25.4208C86.0649 22.6345 87.7427 20.8836 90.3589 20.8836C92.9839 20.8836 94.6538 22.6344 94.6538 25.4208C94.6538 28.2148 92.9927 29.958 90.3589 29.958C87.726 29.958 86.0649 28.2147 86.0649 25.4208ZM92.7602 25.4208C92.7602 23.5094 91.8647 22.3813 90.3589 22.3813C88.853 22.3813 87.9585 23.518 87.9585 25.4208C87.9585 27.3398 88.853 28.4593 90.3589 28.4593C91.8647 28.4593 92.7602 27.3398 92.7602 25.4208H92.7602Z" fill="white"/>
<path d="M96.186 20.9925H97.9585V22.4998H98.0015C98.1214 22.029 98.4034 21.613 98.8 21.3216C99.1966 21.0302 99.6836 20.8813 100.179 20.8998C100.393 20.8991 100.607 20.9218 100.816 20.9676V22.6679C100.546 22.5871 100.264 22.55 99.981 22.558C99.711 22.5473 99.4418 22.5939 99.192 22.6945C98.9421 22.7952 98.7175 22.9475 98.5335 23.1411C98.3496 23.3346 98.2106 23.5648 98.1262 23.8159C98.0417 24.0669 98.0139 24.3329 98.0444 24.5955V29.8481H96.186L96.186 20.9925Z" fill="white"/>
<path d="M109.384 27.2471C109.134 28.8547 107.534 29.958 105.486 29.958C102.852 29.958 101.217 28.2319 101.217 25.4628C101.217 22.6851 102.861 20.8836 105.408 20.8836C107.913 20.8836 109.488 22.5666 109.488 25.2517V25.8745H103.093V25.9843C103.064 26.3103 103.105 26.6386 103.216 26.9475C103.326 27.2564 103.502 27.5389 103.732 27.7761C103.963 28.0134 104.242 28.2 104.552 28.3235C104.861 28.4471 105.195 28.5047 105.529 28.4927C105.968 28.5329 106.409 28.4335 106.785 28.209C107.162 27.9846 107.455 27.6472 107.62 27.2471L109.384 27.2471ZM103.102 24.6041H107.628C107.645 24.311 107.6 24.0178 107.495 23.7427C107.39 23.4677 107.229 23.2167 107.02 23.0057C106.812 22.7947 106.561 22.628 106.283 22.5163C106.006 22.4046 105.708 22.3502 105.408 22.3565C105.105 22.3547 104.805 22.4116 104.525 22.5238C104.245 22.6361 103.99 22.8014 103.776 23.0104C103.562 23.2194 103.392 23.4678 103.276 23.7413C103.16 24.0148 103.101 24.3081 103.102 24.6041V24.6041Z" fill="white"/>
<path d="M37.8262 8.55914C38.2158 8.5318 38.6067 8.58937 38.9709 8.72771C39.335 8.86605 39.6632 9.0817 39.9317 9.35912C40.2003 9.63655 40.4026 9.96881 40.524 10.332C40.6454 10.6951 40.6829 11.0801 40.6338 11.4591C40.6338 13.3237 39.6035 14.3955 37.8262 14.3955H35.6709V8.55914H37.8262ZM36.5976 13.5701H37.7226C38.0011 13.5864 38.2797 13.5417 38.5382 13.4394C38.7967 13.3371 39.0287 13.1796 39.2172 12.9786C39.4057 12.7775 39.546 12.5378 39.6278 12.2771C39.7097 12.0163 39.7311 11.7409 39.6904 11.471C39.7281 11.2022 39.7046 10.9285 39.6215 10.6697C39.5383 10.4108 39.3977 10.1731 39.2096 9.97364C39.0216 9.77417 38.7907 9.61786 38.5337 9.51591C38.2766 9.41395 37.9996 9.36887 37.7226 9.38391H36.5976V13.5701Z" fill="white"/>
<path d="M41.6805 12.1913C41.6521 11.9018 41.686 11.6098 41.7798 11.3339C41.8737 11.058 42.0254 10.8043 42.2254 10.5891C42.4253 10.374 42.669 10.2021 42.9409 10.0844C43.2127 9.96676 43.5067 9.90599 43.804 9.90599C44.1013 9.90599 44.3952 9.96676 44.6671 10.0844C44.939 10.2021 45.1827 10.374 45.3826 10.5891C45.5825 10.8043 45.7343 11.058 45.8281 11.3339C45.922 11.6098 45.9558 11.9018 45.9275 12.1913C45.9564 12.481 45.9229 12.7734 45.8293 13.0498C45.7357 13.3261 45.5841 13.5803 45.3841 13.7959C45.1841 14.0115 44.9402 14.1837 44.6681 14.3016C44.3959 14.4195 44.1016 14.4804 43.804 14.4804C43.5064 14.4804 43.212 14.4195 42.9399 14.3016C42.6678 14.1837 42.4239 14.0115 42.2239 13.7959C42.0239 13.5803 41.8722 13.3261 41.7786 13.0498C41.6851 12.7734 41.6516 12.481 41.6805 12.1913ZM45.0135 12.1913C45.0135 11.2365 44.575 10.6782 43.8055 10.6782C43.033 10.6782 42.5985 11.2365 42.5985 12.1913C42.5985 13.1536 43.033 13.7076 43.8055 13.7076C44.575 13.7076 45.0135 13.1498 45.0135 12.1913H45.0135Z" fill="white"/>
<path d="M51.5732 14.3954H50.6514L49.7207 11.1515H49.6504L48.7236 14.3954H47.8105L46.5693 9.99095H47.4707L48.2773 13.3518H48.3438L49.2695 9.99095H50.1221L51.0479 13.3518H51.1182L51.9209 9.99095H52.8096L51.5732 14.3954Z" fill="white"/>
<path d="M53.8535 9.99095H54.709V10.6906H54.7754C54.888 10.4393 55.0781 10.2287 55.3189 10.088C55.5598 9.94735 55.8395 9.8837 56.1191 9.90593C56.3382 9.88982 56.5582 9.92213 56.7628 10.0005C56.9674 10.0788 57.1514 10.2012 57.3011 10.3585C57.4508 10.5158 57.5623 10.7041 57.6275 10.9093C57.6927 11.1145 57.7099 11.3315 57.6777 11.5441V14.3953H56.7891V11.7624C56.7891 11.0546 56.4746 10.7026 55.8174 10.7026C55.6686 10.6958 55.5201 10.7206 55.3821 10.7752C55.244 10.8298 55.1197 10.9129 55.0175 11.019C54.9154 11.125 54.8379 11.2513 54.7904 11.3894C54.7429 11.5274 54.7264 11.6739 54.7422 11.8187V14.3954H53.8535L53.8535 9.99095Z" fill="white"/>
<path d="M59.0938 8.27158H59.9824V14.3954H59.0938V8.27158Z" fill="white"/>
<path d="M61.2175 12.1913C61.1893 11.9018 61.2231 11.6097 61.317 11.3338C61.4109 11.0579 61.5626 10.8043 61.7626 10.5891C61.9626 10.3739 62.2063 10.202 62.4782 10.0843C62.75 9.96669 63.044 9.90591 63.3413 9.90591C63.6386 9.90591 63.9326 9.96669 64.2045 10.0843C64.4764 10.202 64.7201 10.3739 64.92 10.5891C65.12 10.8043 65.2718 11.0579 65.3656 11.3338C65.4595 11.6097 65.4934 11.9018 65.4651 12.1913C65.4939 12.481 65.4604 12.7735 65.3668 13.0498C65.2732 13.3262 65.1215 13.5803 64.9215 13.7959C64.7215 14.0115 64.4776 14.1837 64.2054 14.3016C63.9333 14.4195 63.639 14.4804 63.3413 14.4804C63.0437 14.4804 62.7493 14.4195 62.4772 14.3016C62.2051 14.1837 61.9612 14.0115 61.7612 13.7959C61.5611 13.5803 61.4095 13.3262 61.3158 13.0498C61.2222 12.7735 61.1887 12.481 61.2175 12.1913ZM64.5505 12.1913C64.5505 11.2365 64.1121 10.6782 63.3425 10.6782C62.5701 10.6782 62.1355 11.2365 62.1355 12.1913C62.1355 13.1536 62.5701 13.7077 63.3425 13.7077C64.1121 13.7076 64.5505 13.1498 64.5505 12.1913H64.5505Z" fill="white"/>
<path d="M66.4009 13.1498C66.4009 12.357 67.0044 11.8999 68.0757 11.835L69.2954 11.7662V11.386C69.2954 10.9208 68.981 10.6582 68.3735 10.6582C67.8774 10.6582 67.5337 10.8363 67.4351 11.1477H66.5747C66.6655 10.3912 67.3931 9.90594 68.4146 9.90594C69.5435 9.90594 70.1802 10.4557 70.1802 11.386V14.3954H69.3247V13.7764H69.2544C69.1117 13.9984 68.9113 14.1794 68.6737 14.3009C68.436 14.4224 68.1697 14.4801 67.9019 14.4679C67.7128 14.4872 67.5218 14.4675 67.341 14.41C67.1602 14.3526 66.9938 14.2588 66.8524 14.1346C66.711 14.0104 66.5977 13.8586 66.52 13.689C66.4422 13.5194 66.4016 13.3357 66.4009 13.1498ZM69.2954 12.7734V12.4052L68.1958 12.474C67.5757 12.5146 67.2944 12.7209 67.2944 13.1092C67.2944 13.5056 67.646 13.7363 68.1294 13.7363C68.2711 13.7503 68.4142 13.7363 68.5502 13.6951C68.6862 13.654 68.8123 13.5865 68.9211 13.4966C69.0299 13.4068 69.1191 13.2965 69.1834 13.1722C69.2477 13.048 69.2858 12.9124 69.2954 12.7734Z" fill="white"/>
<path d="M71.3481 12.1913C71.3481 10.7995 72.0796 9.91788 73.2173 9.91788C73.4987 9.90519 73.778 9.97112 74.0225 10.108C74.267 10.2448 74.4667 10.4469 74.5981 10.6906H74.6646V8.27158H75.5532V14.3954H74.7017V13.6995H74.6314C74.4897 13.9416 74.2831 14.1411 74.0339 14.2766C73.7846 14.412 73.5022 14.4782 73.2173 14.4679C72.0718 14.468 71.3481 13.5863 71.3481 12.1913ZM72.2661 12.1913C72.2661 13.1254 72.7163 13.6876 73.4693 13.6876C74.2183 13.6876 74.6812 13.1173 74.6812 12.1951C74.6812 11.2771 74.2134 10.6988 73.4693 10.6988C72.7212 10.6988 72.2661 11.2647 72.2661 12.1913H72.2661Z" fill="white"/>
<path d="M79.2298 12.1913C79.2015 11.9018 79.2353 11.6098 79.3292 11.3339C79.423 11.058 79.5748 10.8043 79.7747 10.5891C79.9746 10.374 80.2183 10.2021 80.4902 10.0844C80.762 9.96676 81.056 9.90599 81.3533 9.90599C81.6506 9.90599 81.9446 9.96676 82.2164 10.0844C82.4883 10.2021 82.732 10.374 82.9319 10.5891C83.1319 10.8043 83.2836 11.058 83.3775 11.3339C83.4713 11.6098 83.5052 11.9018 83.4768 12.1913C83.5057 12.481 83.4722 12.7734 83.3786 13.0498C83.2851 13.3261 83.1334 13.5803 82.9334 13.7959C82.7334 14.0115 82.4895 14.1837 82.2174 14.3016C81.9453 14.4195 81.6509 14.4804 81.3533 14.4804C81.0557 14.4804 80.7613 14.4195 80.4892 14.3016C80.2171 14.1837 79.9732 14.0115 79.7732 13.7959C79.5732 13.5803 79.4216 13.3261 79.328 13.0498C79.2344 12.7734 79.2009 12.481 79.2298 12.1913ZM82.5628 12.1913C82.5628 11.2365 82.1243 10.6782 81.3548 10.6782C80.5823 10.6782 80.1478 11.2365 80.1478 12.1913C80.1478 13.1536 80.5823 13.7076 81.3548 13.7076C82.1243 13.7076 82.5628 13.1498 82.5628 12.1913Z" fill="white"/>
<path d="M84.6694 9.99095H85.5249V10.6906H85.5913C85.704 10.4393 85.894 10.2287 86.1348 10.088C86.3757 9.94735 86.6555 9.8837 86.9351 9.90593C87.1542 9.88982 87.3742 9.92213 87.5788 10.0005C87.7834 10.0788 87.9673 10.2012 88.117 10.3585C88.2667 10.5158 88.3783 10.7041 88.4435 10.9093C88.5087 11.1145 88.5258 11.3315 88.4937 11.5441V14.3953H87.605V11.7624C87.605 11.0546 87.2905 10.7026 86.6333 10.7026C86.4846 10.6958 86.336 10.7206 86.198 10.7752C86.0599 10.8298 85.9356 10.9129 85.8335 11.019C85.7313 11.125 85.6539 11.2513 85.6063 11.3894C85.5588 11.5274 85.5423 11.6739 85.5581 11.8187V14.3954H84.6694V9.99095Z" fill="white"/>
<path d="M93.5151 8.89438V10.011H94.4907V10.7432H93.5151V13.008C93.5151 13.4693 93.7095 13.6713 94.1519 13.6713C94.2651 13.671 94.3783 13.6643 94.4907 13.6513V14.3753C94.3311 14.4032 94.1694 14.4181 94.0073 14.4197C93.019 14.4197 92.6255 14.0797 92.6255 13.2305V10.7431H91.9106V10.011H92.6255V8.89438H93.5151Z" fill="white"/>
<path d="M95.7046 8.27158H96.5854V10.6987H96.6558C96.7739 10.4451 96.9691 10.2332 97.2148 10.0921C97.4605 9.95086 97.7447 9.8872 98.0288 9.90975C98.2467 9.89815 98.4646 9.93374 98.6669 10.014C98.8692 10.0942 99.0508 10.2172 99.199 10.374C99.3471 10.5308 99.458 10.7177 99.5238 10.9213C99.5896 11.1249 99.6086 11.3401 99.5795 11.5517V14.3954H98.69V11.7662C98.69 11.0627 98.355 10.7064 97.7271 10.7064C97.5743 10.6941 97.4207 10.7147 97.2769 10.7666C97.1332 10.8184 97.0027 10.9004 96.8947 11.0068C96.7867 11.1132 96.7038 11.2413 96.6517 11.3823C96.5997 11.5233 96.5797 11.6737 96.5933 11.823V14.3954H95.7046L95.7046 8.27158Z" fill="white"/>
<path d="M104.761 13.2062C104.641 13.6087 104.379 13.9569 104.022 14.1898C103.666 14.4228 103.237 14.5256 102.81 14.4804C102.514 14.488 102.219 14.4325 101.946 14.3175C101.674 14.2026 101.43 14.031 101.232 13.8147C101.034 13.5984 100.887 13.3425 100.8 13.0649C100.713 12.7873 100.69 12.4946 100.73 12.207C100.691 11.9186 100.715 11.6252 100.801 11.3468C100.888 11.0683 101.035 10.8113 101.231 10.5931C101.428 10.3749 101.671 10.2006 101.943 10.0821C102.214 9.96353 102.509 9.90346 102.806 9.90594C104.059 9.90594 104.815 10.7432 104.815 12.1263V12.4296H101.635V12.4783C101.621 12.6399 101.642 12.8026 101.696 12.9559C101.751 13.1093 101.837 13.2498 101.95 13.3686C102.063 13.4874 102.2 13.5818 102.352 13.6458C102.504 13.7098 102.669 13.7419 102.835 13.7401C103.047 13.765 103.263 13.7276 103.453 13.6325C103.644 13.5374 103.802 13.389 103.906 13.2061L104.761 13.2062ZM101.635 11.7867H103.91C103.921 11.6389 103.9 11.4904 103.85 11.3508C103.799 11.2112 103.718 11.0836 103.614 10.9762C103.51 10.8687 103.383 10.7838 103.243 10.7269C103.103 10.67 102.953 10.6423 102.801 10.6457C102.648 10.6439 102.495 10.6721 102.353 10.7288C102.21 10.7854 102.081 10.8694 101.972 10.9758C101.864 11.0821 101.778 11.2086 101.72 11.3479C101.662 11.4872 101.633 11.6364 101.635 11.7867H101.635Z" fill="white"/>
</svg>
