<svg width="83" height="83" viewBox="0 0 83 83" fill="none" xmlns="http://www.w3.org/2000/svg">
<g filter="url(#filter0_d)">
<path d="M24 41.5C24 31.835 31.835 24 41.5 24C51.165 24 59 31.835 59 41.5C59 51.165 51.165 59 41.5 59C31.835 59 24 51.165 24 41.5Z" fill="white"/>
</g>
<path d="M35.9004 41.5L35.5468 41.1465L35.1933 41.5L35.5468 41.8536L35.9004 41.5ZM46.4004 42C46.6765 42 46.9004 41.7762 46.9004 41.5C46.9004 41.2239 46.6765 41 46.4004 41L46.4004 42ZM39.7468 36.9465L35.5468 41.1465L36.2539 41.8536L40.4539 37.6536L39.7468 36.9465ZM35.5468 41.8536L39.7468 46.0536L40.4539 45.3465L36.2539 41.1465L35.5468 41.8536ZM35.9004 42L46.4004 42L46.4004 41L35.9004 41L35.9004 42Z" fill="#28367B"/>
<defs>
<filter id="filter0_d" x="0" y="0" width="83" height="83" filterUnits="userSpaceOnUse" color-interpolation-filters="sRGB">
<feFlood flood-opacity="0" result="BackgroundImageFix"/>
<feColorMatrix in="SourceAlpha" type="matrix" values="0 0 0 0 0 0 0 0 0 0 0 0 0 0 0 0 0 0 127 0" result="hardAlpha"/>
<feOffset/>
<feGaussianBlur stdDeviation="12"/>
<feColorMatrix type="matrix" values="0 0 0 0 0.156863 0 0 0 0 0.211765 0 0 0 0 0.482353 0 0 0 0.08 0"/>
<feBlend mode="normal" in2="BackgroundImageFix" result="effect1_dropShadow"/>
<feBlend mode="normal" in="SourceGraphic" in2="effect1_dropShadow" result="shape"/>
</filter>
</defs>
</svg>
