<svg width="83" height="83" viewBox="0 0 83 83" fill="none" xmlns="http://www.w3.org/2000/svg">
<g filter="url(#filter0_d)">
<path d="M59 41.5C59 51.165 51.165 59 41.5 59C31.835 59 24 51.165 24 41.5C24 31.835 31.835 24 41.5 24C51.165 24 59 31.835 59 41.5Z" fill="white"/>
</g>
<path d="M47.0996 41.5L47.4532 41.8535L47.8067 41.5L47.4532 41.1464L47.0996 41.5ZM36.5996 41C36.3235 41 36.0996 41.2238 36.0996 41.5C36.0996 41.7761 36.3235 42 36.5996 42L36.5996 41ZM43.2532 46.0535L47.4532 41.8535L46.7461 41.1464L42.5461 45.3464L43.2532 46.0535ZM47.4532 41.1464L43.2532 36.9464L42.5461 37.6535L46.7461 41.8535L47.4532 41.1464ZM47.0996 41L36.5996 41L36.5996 42L47.0996 42L47.0996 41Z" fill="#28367B"/>
<defs>
<filter id="filter0_d" x="0" y="0" width="83" height="83" filterUnits="userSpaceOnUse" color-interpolation-filters="sRGB">
<feFlood flood-opacity="0" result="BackgroundImageFix"/>
<feColorMatrix in="SourceAlpha" type="matrix" values="0 0 0 0 0 0 0 0 0 0 0 0 0 0 0 0 0 0 127 0" result="hardAlpha"/>
<feOffset/>
<feGaussianBlur stdDeviation="12"/>
<feColorMatrix type="matrix" values="0 0 0 0 0.156863 0 0 0 0 0.211765 0 0 0 0 0.482353 0 0 0 0.08 0"/>
<feBlend mode="normal" in2="BackgroundImageFix" result="effect1_dropShadow"/>
<feBlend mode="normal" in="SourceGraphic" in2="effect1_dropShadow" result="shape"/>
</filter>
</defs>
</svg>
