<svg width="50" height="50" viewBox="0 0 50 50" fill="none" xmlns="http://www.w3.org/2000/svg">
<circle cx="25" cy="25" r="25" fill="#28367B"/>
<rect width="24" height="24" transform="translate(13 13)" fill="#28367B"/>
<path d="M25 33L24.2929 33.7071L25 34.4142L25.7071 33.7071L25 33ZM26 18C26 17.4477 25.5523 17 25 17C24.4477 17 24 17.4477 24 18L26 18ZM18.2929 27.7071L24.2929 33.7071L25.7071 32.2929L19.7071 26.2929L18.2929 27.7071ZM25.7071 33.7071L31.7071 27.7071L30.2929 26.2929L24.2929 32.2929L25.7071 33.7071ZM26 33L26 18L24 18L24 33L26 33Z" fill="white"/>
</svg>
