<svg width="14" height="14" viewBox="0 0 14 14" fill="none" xmlns="http://www.w3.org/2000/svg">
<path fill-rule="evenodd" clip-rule="evenodd" d="M13.2271 0H0.772917C0.345917 0 0 0.345917 0 0.772917V13.2277C0 13.6541 0.345917 14 0.772917 14H7.47833V8.5785H5.65367V6.46567H7.47833V4.90758C7.47833 3.09925 8.58258 2.11458 10.1961 2.11458C10.969 2.11458 11.6328 2.17233 11.8265 2.198V4.088L10.7077 4.08858C9.83033 4.08858 9.66058 4.50567 9.66058 5.117V6.46625H11.753L11.4806 8.57908H9.66058V14H13.2282C13.6541 14 14 13.6541 14 13.2271V0.772917C14 0.345917 13.6541 0 13.2271 0Z" fill="white"/>
</svg>
