<svg width="14" height="14" viewBox="0 0 14 14" fill="none" xmlns="http://www.w3.org/2000/svg">
<path fill-rule="evenodd" clip-rule="evenodd" d="M6.99995 1.26171C8.86895 1.26171 9.09062 1.26871 9.82912 1.30255C11.7261 1.38888 12.6122 2.28896 12.6985 4.17196C12.7324 4.90988 12.7388 5.13155 12.7388 7.00055C12.7388 8.87013 12.7318 9.09122 12.6985 9.82913C12.6116 11.7104 11.7279 12.6122 9.82912 12.6985C9.09062 12.7324 8.87012 12.7394 6.99995 12.7394C5.13095 12.7394 4.90929 12.7324 4.17137 12.6985C2.2697 12.6116 1.38829 11.7075 1.30195 9.82855C1.26812 9.09063 1.26112 8.86955 1.26112 6.99996C1.26112 5.13096 1.2687 4.90988 1.30195 4.17138C1.38887 2.28896 2.27262 1.3883 4.17137 1.30196C4.90987 1.26871 5.13095 1.26171 6.99995 1.26171ZM7 0C5.09892 0 4.86092 0.00816667 4.11425 0.042C1.57208 0.158667 0.15925 1.56917 0.0425833 4.11367C0.00816667 4.86092 0 5.09892 0 7C0 8.90108 0.00816667 9.13967 0.042 9.88633C0.158667 12.4285 1.56917 13.8413 4.11367 13.958C4.86092 13.9918 5.09892 14 7 14C8.90108 14 9.13967 13.9918 9.88633 13.958C12.4262 13.8413 13.8425 12.4308 13.9574 9.88633C13.9918 9.13967 14 8.90108 14 7C14 5.09892 13.9918 4.86092 13.958 4.11425C13.8437 1.57442 12.4314 0.15925 9.88692 0.0425833C9.13967 0.00816667 8.90108 0 7 0ZM7.00005 3.40555C5.01496 3.40555 3.40555 5.01496 3.40555 7.00004C3.40555 8.98513 5.01496 10.5951 7.00005 10.5951C8.98513 10.5951 10.5945 8.98571 10.5945 7.00004C10.5945 5.01496 8.98513 3.40555 7.00005 3.40555ZM7 9.33333C5.71142 9.33333 4.66667 8.28917 4.66667 7C4.66667 5.71142 5.71142 4.66667 7 4.66667C8.28858 4.66667 9.33333 5.71142 9.33333 7C9.33333 8.28917 8.28858 9.33333 7 9.33333ZM10.7369 2.42375C10.2726 2.42375 9.89631 2.8 9.89631 3.26375C9.89631 3.7275 10.2726 4.10375 10.7369 4.10375C11.2006 4.10375 11.5763 3.7275 11.5763 3.26375C11.5763 2.8 11.2006 2.42375 10.7369 2.42375Z" fill="white"/>
</svg>
