<svg width="16" height="16" viewBox="0 0 16 16" fill="none" xmlns="http://www.w3.org/2000/svg">
<path fill-rule="evenodd" clip-rule="evenodd" d="M8.40005 15.9C9.8856 15.1244 15 12.0879 15 7.04299C15 3.15325 11.866 0 8 0C4.13401 0 1 3.15325 1 7.04299C1 12.0879 6.1144 15.1244 7.59995 15.9C7.85387 16.0325 8.14613 16.0325 8.40005 15.9ZM8 10.0614C9.65685 10.0614 11 8.71002 11 7.04299C11 5.37596 9.65685 4.02457 8 4.02457C6.34315 4.02457 5 5.37596 5 7.04299C5 8.71002 6.34315 10.0614 8 10.0614Z" fill="#28367B"/>
</svg>
