<svg width="18" height="18" viewBox="0 0 18 18" fill="none" xmlns="http://www.w3.org/2000/svg">
<path fill-rule="evenodd" clip-rule="evenodd" d="M9.54994 1.5H7.77495C7.4988 1.5 7.27495 1.72386 7.27495 2V2.17246H10.0499V2C10.0499 1.72386 9.82609 1.5 9.54994 1.5ZM5.77495 2V2.17246H1.5C0.671573 2.17246 0 2.84403 0 3.67246V9.3621C0 10.1905 0.671572 10.8621 1.5 10.8621H15.825C16.6534 10.8621 17.325 10.1905 17.325 9.3621V3.67246C17.325 2.84403 16.6534 2.17246 15.825 2.17246H11.5499V2C11.5499 0.895431 10.6545 0 9.54994 0H7.77495C6.67038 0 5.77495 0.89543 5.77495 2ZM16.3623 11.9483H0.962335V14.75C0.962335 15.3023 1.41005 15.75 1.96234 15.75H15.3623C15.9146 15.75 16.3623 15.3023 16.3623 14.75V11.9483Z" fill="#28367B"/>
<rect x="7.07959" y="9.27585" width="3.16563" height="4.25862" rx="1" fill="#28367B" stroke="white"/>
</svg>
