<svg width="16" height="16" viewBox="0 0 16 16" fill="none" xmlns="http://www.w3.org/2000/svg">
<path fill-rule="evenodd" clip-rule="evenodd" d="M0.87868 2.87868C0 3.75736 0 5.17157 0 8C0 10.8284 0 12.2426 0.87868 13.1213C1.75736 14 3.17157 14 6 14H10C12.8284 14 14.2426 14 15.1213 13.1213C16 12.2426 16 10.8284 16 8C16 5.17157 16 3.75736 15.1213 2.87868C14.2426 2 12.8284 2 10 2H6C3.17157 2 1.75736 2 0.87868 2.87868ZM2.93705 5.0091C2.70476 4.85977 2.3954 4.92702 2.24608 5.15931C2.09675 5.39159 2.164 5.70095 2.39629 5.85028L7.18886 8.93122C7.68298 9.24886 8.31703 9.24886 8.81114 8.93122L13.6037 5.85028C13.836 5.70095 13.9032 5.39159 13.7539 5.15931C13.6046 4.92702 13.2952 4.85977 13.063 5.0091L8.27038 8.09004C8.10567 8.19592 7.89433 8.19592 7.72962 8.09004L2.93705 5.0091Z" fill="#28367B"/>
</svg>
