<svg width="16" height="16" viewBox="0 0 16 16" fill="none" xmlns="http://www.w3.org/2000/svg">
<path fill-rule="evenodd" clip-rule="evenodd" d="M0 8C0 4.22876 0 2.34315 1.17157 1.17157C2.34315 0 4.22876 0 8 0C11.7712 0 13.6569 0 14.8284 1.17157C16 2.34315 16 4.22876 16 8C16 11.7712 16 13.6569 14.8284 14.8284C13.6569 16 11.7712 16 8 16C4.22876 16 2.34315 16 1.17157 14.8284C0 13.6569 0 11.7712 0 8ZM4.77278 11.7955C5.6984 11.0853 6.83251 10.7003 7.99922 10.7003C9.16593 10.7003 10.3 11.0853 11.2257 11.7955C12.1513 12.5058 12.8167 13.5016 13.1186 14.6286C13.1901 14.8953 13.0318 15.1695 12.7651 15.2409C12.4983 15.3124 12.2242 15.1541 12.1527 14.8874C11.9077 13.9731 11.3679 13.1651 10.6169 12.5889C9.86592 12.0127 8.9458 11.7003 7.99922 11.7003C7.05264 11.7003 6.13252 12.0127 5.38155 12.5889C4.63058 13.1651 4.09073 13.9731 3.84574 14.8874C3.77427 15.1541 3.5001 15.3124 3.23337 15.2409C2.96663 15.1695 2.80834 14.8953 2.87981 14.6286C3.18178 13.5016 3.84717 12.5058 4.77278 11.7955ZM6.09961 5.59969C6.09961 4.55035 6.95027 3.69969 7.99961 3.69969C9.04895 3.69969 9.89961 4.55035 9.89961 5.59969C9.89961 6.64903 9.04895 7.49969 7.99961 7.49969C6.95027 7.49969 6.09961 6.64903 6.09961 5.59969ZM7.99961 2.69969C6.39798 2.69969 5.09961 3.99806 5.09961 5.59969C5.09961 7.20131 6.39798 8.49969 7.99961 8.49969C9.60123 8.49969 10.8996 7.20131 10.8996 5.59969C10.8996 3.99806 9.60123 2.69969 7.99961 2.69969Z" fill="#28367B"/>
</svg>
