<svg width="18" height="18" viewBox="0 0 18 18" fill="none" xmlns="http://www.w3.org/2000/svg">
<path fill-rule="evenodd" clip-rule="evenodd" d="M2.25022 2C2.25022 0.89543 3.14565 0 4.25022 0H13.0752C14.1798 0 15.0752 0.895431 15.0752 2V17C15.0752 17.0337 15.0736 17.067 15.0703 17.0999H16.875C17.1235 17.0999 17.325 17.3013 17.325 17.5499C17.325 17.7984 17.1235 17.9999 16.875 17.9999H14.0915L14.0752 18H3.25022L3.23395 17.9999H0.45C0.201472 17.9999 0 17.7984 0 17.5499C0 17.3013 0.201472 17.0999 0.45 17.0999H2.25514C2.25189 17.067 2.25022 17.0337 2.25022 17V2ZM5.72475 2.92507C5.17247 2.92507 4.72475 3.37278 4.72475 3.92507V4.85007C4.72475 5.40235 5.17247 5.85007 5.72475 5.85007H6.64975C7.20204 5.85007 7.64975 5.40235 7.64975 4.85007V3.92507C7.64975 3.37278 7.20204 2.92507 6.64975 2.92507H5.72475ZM4.72475 8.65009C4.72475 8.09781 5.17247 7.65009 5.72475 7.65009H6.64975C7.20204 7.65009 7.64975 8.09781 7.64975 8.65009V9.57509C7.64975 10.1274 7.20204 10.5751 6.64975 10.5751H5.72475C5.17247 10.5751 4.72475 10.1274 4.72475 9.57509V8.65009ZM10.4501 7.65009C9.89777 7.65009 9.45005 8.09781 9.45005 8.65009V9.57509C9.45005 10.1274 9.89777 10.5751 10.45 10.5751H11.3751C11.9273 10.5751 12.3751 10.1274 12.3751 9.57509V8.65009C12.3751 8.09781 11.9273 7.65009 11.3751 7.65009H10.4501ZM9.45005 3.92507C9.45005 3.37278 9.89777 2.92507 10.4501 2.92507H11.3751C11.9273 2.92507 12.3751 3.37278 12.3751 3.92507V4.85007C12.3751 5.40235 11.9273 5.85007 11.3751 5.85007H10.45C9.89777 5.85007 9.45005 5.40235 9.45005 4.85007V3.92507ZM6.85013 12.3751C6.29785 12.3751 5.85013 12.8228 5.85013 13.3751V17.1001H11.4751V13.3751C11.4751 12.8228 11.0274 12.3751 10.4751 12.3751H6.85013Z" fill="#28367B"/>
</svg>
