<svg width="18" height="18" viewBox="0 0 18 18" fill="none" xmlns="http://www.w3.org/2000/svg">
<path d="M3.67962 0.761168L3.73368 0.707107C4.12421 0.316582 4.75737 0.316582 5.1479 0.707106L7.28631 2.84552C7.67684 3.23605 7.67684 3.86921 7.28631 4.25974L5.77345 5.7726C5.508 6.03805 5.44219 6.44359 5.61008 6.77937C6.58062 8.72045 8.15455 10.2944 10.0956 11.2649C10.4314 11.4328 10.8369 11.367 11.1024 11.1015L12.6153 9.58869C13.0058 9.19816 13.639 9.19816 14.0295 9.58869L16.1679 11.7271C16.5584 12.1176 16.5584 12.7508 16.1679 13.1413L16.1138 13.1954C14.0025 15.3067 10.6599 15.5443 8.27119 13.7527L7.95752 13.5175C6.21399 12.2098 4.66517 10.661 3.35752 8.91748L3.12226 8.60381C1.33072 6.21509 1.56827 2.87252 3.67962 0.761168Z" fill="white"/>
</svg>
