<svg width="112" height="143" viewBox="0 0 112 143" fill="none" xmlns="http://www.w3.org/2000/svg">
<path d="M12 93C12 65.3858 34.3858 43 62 43C89.6142 43 112 65.3858 112 93C112 120.614 89.6142 143 62 143C34.3858 143 12 120.614 12 93Z" fill="#B6CD1E"/>
<path d="M64.54 103V85.36H26.04C26.46 80.32 34.3 73.6 40.18 69.12C58.24 55.54 64.26 47.84 64.26 34.54C64.26 16.06 51.38 6.95999 32.2 6.95999C13.02 6.95999 1.82 19.14 1.82 38.88H21.28C21.28 27.4 26.46 24.32 33.18 24.32C39.48 24.32 44.52 26.42 44.52 35.24C44.52 42.1 41.16 46.86 28.28 56.24C4.48 73.74 0.7 85.78 0.56 103H64.54Z" fill="#28367B"/>
</svg>
