<svg width="112" height="143" viewBox="0 0 112 143" fill="none" xmlns="http://www.w3.org/2000/svg">
<path d="M12 93C12 65.3858 34.3858 43 62 43C89.6142 43 112 65.3858 112 93C112 120.614 89.6142 143 62 143C34.3858 143 12 120.614 12 93Z" fill="#B6CD1E"/>
<path d="M26.04 62.12C40.04 62.12 45.08 65.2 45.08 75.7C45.08 84.52 40.04 89.56 33.6 89.56C25.48 89.56 21.28 85.64 21.28 75.84H1.82C1.82 94.74 12.74 106.22 32.62 106.22C53.48 106.22 65.8 94.6 65.8 75.98C65.8 62.96 60.34 56.38 52.08 53.02C59.64 49.1 62.86 41.54 62.86 33.28C62.86 17.46 51.24 6.95999 33.6 6.95999C14.28 6.95999 3.36 18.86 3.36 36.64H22.26C22.26 27.82 26.74 23.2 32.9 23.2C40.6 23.2 43.96 27.82 43.96 35.66C43.96 42.24 40.88 47.98 26.04 47.98V62.12Z" fill="#28367B"/>
</svg>
