<svg width="13" height="13" viewBox="0 0 13 13" fill="none" xmlns="http://www.w3.org/2000/svg">
<path fill-rule="evenodd" clip-rule="evenodd" d="M6.5 13C10.0899 13 13 10.0899 13 6.5C13 2.91015 10.0899 0 6.5 0C2.91015 0 0 2.91015 0 6.5C0 10.0899 2.91015 13 6.5 13ZM7.05721 2.52778C7.05721 2.22008 6.80777 1.97064 6.50007 1.97064C6.19238 1.97064 5.94294 2.22008 5.94294 2.52778V6.58254C5.94294 7.04409 6.31709 7.41824 6.77864 7.41824H8.66674C8.97443 7.41824 9.22387 7.16881 9.22387 6.86111C9.22387 6.55341 8.97443 6.30398 8.66674 6.30398H7.05721V2.52778Z" fill="#28367B"/>
</svg>
