<svg width="14" height="14" viewBox="0 0 14 14" fill="none" xmlns="http://www.w3.org/2000/svg">
<path fill-rule="evenodd" clip-rule="evenodd" d="M14 2.51366C13.4849 2.74233 12.9313 2.89633 12.3503 2.96575C12.9436 2.6105 13.3992 2.04758 13.6132 1.37675C13.0585 1.70575 12.4437 1.94491 11.7892 2.07383C11.2659 1.51558 10.5187 1.16675 9.69267 1.16675C7.83825 1.16675 6.47558 2.89691 6.89442 4.693C4.508 4.57342 2.39167 3.43008 0.97475 1.69233C0.22225 2.98325 0.5845 4.672 1.86317 5.52716C1.393 5.512 0.949667 5.38308 0.562917 5.16783C0.531417 6.49841 1.48517 7.74325 2.8665 8.02033C2.46225 8.13 2.0195 8.15567 1.56917 8.06933C1.93433 9.21033 2.99483 10.0404 4.2525 10.0637C3.045 11.0105 1.52367 11.4334 0 11.2537C1.27108 12.0687 2.78133 12.5441 4.403 12.5441C9.73583 12.5441 12.7487 8.04016 12.5667 4.00058C13.1279 3.59516 13.615 3.08941 14 2.51366Z" fill="white"/>
</svg>
