<svg width="101" height="49" viewBox="0 0 101 49" fill="none" xmlns="http://www.w3.org/2000/svg">
<path d="M24.8486 1.8573C12.1834 1.8573 1.88184 12.016 1.88184 24.5C1.88184 36.9839 12.1834 47.1426 24.8486 47.1426H75.6016C88.2668 47.1426 98.5684 36.9839 98.5684 24.5C98.5684 12.016 88.2668 1.8573 75.6016 1.8573H24.8486Z" fill="#B6CD1E"/>
<path d="M24.8485 1.85735C12.1833 1.85735 1.88171 12.0161 1.88171 24.5C1.88171 36.9839 12.1833 47.1427 24.8485 47.1427H75.6015C88.2667 47.1427 98.5683 36.9839 98.5683 24.5C98.5683 12.0161 88.2667 1.85735 75.6015 1.85735H24.8485ZM75.6015 49H24.8485C11.145 49 0 38.0119 0 24.5C0 10.9917 11.145 0 24.8485 0H75.6015C89.305 0 100.45 10.9881 100.45 24.5C100.45 38.0083 89.305 49 75.6015 49Z" fill="#28367B"/>
<path d="M55.3956 18.7082C53.8753 18.7082 52.7945 19.2895 52.1318 20.5939C51.1998 19.2151 50.4167 18.7082 48.7724 18.7082C47.1777 18.7082 46.0508 19.1902 45.2428 20.764V19.0237H42.252V30.9192H45.4413V23.6883C45.4413 22.1393 46.104 21.3666 47.3797 21.3666C48.7759 21.3666 49.2933 21.8487 49.2933 23.7592V30.9157H52.4826V23.8088C52.4826 22.3591 53.3402 21.2709 54.5167 21.2709C55.6436 21.2709 56.4055 22.2847 56.4055 23.7131V30.9192H59.5204V22.6746C59.5169 20.4486 57.823 18.7082 55.3956 18.7082Z" fill="#28367B"/>
<path d="M67.7701 28.6718C66.2498 28.6718 65.0733 27.2682 65.0733 25.262C65.0733 22.6745 65.9805 21.3949 67.7453 21.3949C69.6093 21.3949 70.4916 22.6284 70.4916 25.0706C70.4916 27.1938 69.3647 28.6718 67.7701 28.6718ZM68.7765 18.7081C67.281 18.7081 66.1045 19.3107 65.1973 20.569V14.6708H62.0576V30.9191H65.1229L65.1477 29.4694C65.9096 30.6781 67.0365 31.2346 68.5072 31.2346C71.5477 31.2346 73.7306 28.8668 73.7306 24.8508C73.7306 21.246 71.8914 18.7081 68.7765 18.7081Z" fill="#28367B"/>
<path d="M80.375 21.2C81.6259 21.2 82.8024 22.0472 82.852 23.8088H77.9227C78.0467 22.1677 79.0992 21.2 80.375 21.2ZM80.5238 28.7428C78.9539 28.7428 77.9263 27.5802 77.827 25.7938H86.1406C86.1406 21.0795 84.1774 18.7082 80.4742 18.7082C76.771 18.7082 74.6377 21.0795 74.6377 24.7517C74.6377 29.0548 76.6505 31.2311 80.6691 31.2311C83.2454 31.2311 85.2298 29.8523 85.9669 27.4101H82.6819C82.4587 28.236 81.5515 28.7428 80.5238 28.7428Z" fill="#28367B"/>
<path d="M27.4036 12.6468L14.3096 14.6034L14.7384 17.3752L19.5862 16.6521L21.599 29.7493L24.969 29.246L22.9562 16.1488L27.8288 15.4186L27.4036 12.6468Z" fill="#28367B"/>
<path d="M35.8237 26.595C35.5013 28.1333 34.4275 29.0726 32.8399 28.75C31.5181 28.4807 30.9972 27.6335 31.3055 26.1661L32.8187 18.9671L29.6967 18.329L28.0843 25.9995C27.5456 28.5551 28.8426 30.6216 31.1957 31.1036C32.8293 31.4368 34.183 31.0717 35.278 29.9127L34.9343 31.5467C34.4842 33.6912 32.3509 35.07 30.1786 34.6269C28.8781 34.3611 27.7937 33.4785 27.2799 32.2698L24.498 33.4147C25.3946 35.5308 27.2905 37.0727 29.5656 37.537C33.3644 38.3133 37.0995 35.8959 37.8862 32.1457L40.3349 20.4983L37.2377 19.8674L35.8237 26.595Z" fill="#28367B"/>
</svg>
